# xmcd CD database file
# Copyright (C) 1993-1996 Ti Kan
#
# Track frame offsets:
# 150
# 16375
# 31455
# 53237
# 66850
# 80237
# 94037
# 110755
# 123735
# 138580
#
# Disc length: 2051 seconds
#
# Revision: 0
# Processed by: cddbd v1.4b41PL1 Copyright (c) Steve Scherf et al.
# Submitted via: inCDius 1.1b5
#
DISCID=9208010a
DTITLE=Larry Gatlin and The Gatlin Brothers - Biggest Hits
DYEAR=1900
DGENRE=
TTITLE0=Talkin' To The Moon
TTITLE1=She Used To Be Somebody's Baby
TTITLE2=Run Away Go Home
TTITLE3=Nothing But Your Love Matters
TTITLE4=Alive And Well
TTITLE5=Love Of A Lifetime
TTITLE6=Denver
TTITLE7=The Lady Takes The Cowboy Everytime
TTITLE8=Changin' Partners
TTITLE9=From Time To Time (It Feels Like Love Again)
EXTD=
EXTT0=
EXTT1=
EXTT2=
EXTT3=
EXTT4=
EXTT5=
EXTT6=
EXTT7=
EXTT8=
EXTT9=With Janie Frickie
PLAYORDER=
